# AST/ASF file generated using VICON BodyLanguage
# -----------------------------------------------
:version 1.10
:name VICON
:units
  mass 1.0
  length 0.45
  angle deg
:documentation
   .ast/.asf automatically generated from VICON data using
   VICON BodyBuilder and BodyLanguage model FoxedUp or BRILLIANT.MOD
:root
   order TX TY TZ RX RY RZ
   axis XYZ
   position 0 0 0  
   orientation 0 0 0 
:bonedata
  begin
     id 1 
     name lhipjoint
     direction 0.714689 -0.624256 0.315473 
     length 2.45343 
     axis 0 0 0  XYZ
  end
  begin
     id 2 
     name lfemur
     direction 0.34202 -0.939693 0  
     length 6.59069  
     axis 0 0 20  XYZ
    dof rx ry rz
    limits (-160.0 20.0)
           (-70.0 70.0)
           (-60.0 70.0)
  end
  begin
     id 3 
     name ltibia
     direction 0.34202 -0.939693 0   
     length 6.73476   
     axis 0 0 20   XYZ
    dof rx
    limits (-10.0 170.0)
  end
  begin
     id 4 
     name lfoot
     direction 0.0718085 -0.197292 0.977711   
     length 1.52607   
     axis -90 7.62852e-016 20   XYZ
    dof rx rz
    limits (-45.0 90.0)
           (-70.0 20.0)
  end
  begin
     id 5 
     name ltoes
     direction 1.53553e-011 -4.22024e-011 1   
     length 0.777832   
     axis -90 7.62852e-016 20   XYZ
    dof rx
    limits (-90.0 20.0)
  end
  begin
     id 6 
     name rhipjoint
     direction -0.727419 -0.612432 0.309497   
     length 2.50079  
     axis 0 0 0  XYZ 
  end
  begin
     id 7 
     name rfemur
     direction -0.34202 -0.939693 0   
     length 6.51665   
     axis 0 0 -20   XYZ
    dof rx ry rz
    limits (-160.0 20.0)
           (-70.0 70.0)
           (-70.0 60.0)
  end
  begin
     id 8 
     name rtibia
     direction -0.34202 -0.939693 0   
     length 6.48919   
     axis 0 0 -20   XYZ
    dof rx
    limits (-10.0 170.0)
 end
 begin
     id 9 
     name rfoot
     direction -0.112205 -0.308282 0.944655   
     length 1.68717  
     axis -90 -7.62852e-016 -20   XYZ
    dof rx rz
    limits (-45.0 90.0)
           (-20.0 70.0)
  end
  begin
     id 10 
     name rtoes
     direction -1.53583e-011 -4.21993e-011 1   
     length 0.846859   
     axis -90 -7.62852e-016 -20   XYZ
    dof rx
    limits (-90.0 20.0)
  end
  begin
     id 11 
     name lowerback
     direction -0.00119603 0.996364 -0.0851956   
     length 1.67242   
     axis 0 0 0   XYZ
    dof rx ry rz
    limits (-20.0 45.0)
           (-30.0 30.0)
           (-30.0 30.0)
  end
  begin
     id 12 
     name upperback
     direction -0.00531001 0.998318 0.0577248   
     length 1.64819   
     axis 0 0 0   XYZ
    dof rx ry rz
    limits (-20.0 45.0)
           (-30.0 30.0)
           (-30.0 30.0)
  end
  begin
     id 13 
     name thorax
     direction -0.00653676 0.995132 0.0983291   
     length 1.67429   
     axis 0 0 0   XYZ
    dof rx ry rz
    limits (-20.0 45.0)
           (-30.0 30.0)
           (-30.0 30.0)
  end
  begin
     id 14 
     name lowerneck
     direction 0.0141424 0.999886 0.00525412   
     length 1.59623   
     axis 0 0 0   XYZ
    dof rx ry rz
    limits (-20.0 45.0)
           (-30.0 30.0)
           (-30.0 30.0)
  end
  begin
     id 15 
     name upperneck
     direction -0.0640064 0.987178 -0.146232   
     length 1.59576   
     axis 0 0 0   XYZ
    dof rx ry rz
    limits (-20.0 45.0)
           (-30.0 30.0)
           (-30.0 30.0)
  end
  begin
     id 16
     name head
     direction -0.0222942 0.998496 -0.0500859  
     length 1.60959  
     axis 0 0 0   XYZ
    dof rx ry rz
    limits (-20.0 45.0)
           (-30.0 30.0)
           (-30.0 30.0)
  end
  begin
     id 17 
     name lclavicle
     direction 0.908549 0.392612 0.142806  
     length 2.80649  
     axis 0 0 0   XYZ
    dof ry rz
    limits (-20.0 10.0)
           (0.0 20.0)
  end
  begin
     id 18 
     name lhumerus
     direction 1 -4.48968e-011 1.08832e-028   
     length 4.2884   
     axis -180 -30 -90   XYZ
    dof rx ry rz
    limits (-60.0 90.0)
           (-90.0 90.0)
           (-90.0 90.0)
  end
  begin
     id 19
     name lradius
     direction 1 -4.48952e-011 -3.02642e-028   
     length 3.06552   
     axis -180 -30 -90   XYZ
    dof rx
    limits (-10.0 170.0)
  end
  begin
     id 20
     name lwrist
     direction 1 -4.49014e-011 1.58672e-027   
     length 1.53276   
     axis -1.65735e-015 90 90   XYZ
    dof ry
    limits (-180.0 0.0)
 end
  begin
     id 21 
     name lhand
     direction 1 -4.48928e-011 3.17344e-027   
     length 0.753045   
     axis -2.02492e-015 90 90   XYZ
    dof rx rz
    limits (-90.0 90.0)
           (-45.0 45.0)
  end
  begin
     id 22 
     name lfingers
     direction 1 -4.48958e-011 6.34687e-027   
     length 0.607124   
     axis -4.04985e-015 90 90   XYZ
    dof rx
    limits (0.0 90.0)
  end
  begin
     id 23
     name lthumb
     direction 0.707107 -6.34905e-011 0.707107   
     length 0.871712   
     axis -90 45 2.85299e-015   XYZ
    dof rx rz
    limits (-45.0 45.0)
           (-45.0 45.0)
  end
  begin
     id 24 
     name rclavicle
     direction -0.885098 0.45949 0.0739604   
     length 2.9478  
     axis 0 0 0   XYZ 
    dof ry rz
    limits (-10.0 20.0)
           (-20.0 0.0)
  end
  begin
     id 25 
     name rhumerus
     direction -1 -4.4898e-011 -2.61739e-027  
     length 4.52172   
     axis -180 30 90   XYZ
    dof rx ry rz
    limits (-90.0 60.0)
           (-90.0 90.0)
           (-90.0 90.0)
  end
  begin
     id 26 
     name rradius
     direction -1 -4.48945e-011 9.02552e-028   
     length 2.8914   
     axis -180 30 90   XYZ
    dof rx
    limits (-10.0 170.0)
  end
  begin
     id 27 
     name rwrist
     direction -1 -4.49018e-011 1.58672e-027   
     length 1.4457   
     axis -1.65735e-015 -90 -90   XYZ
    dof ry
    limits (-180.0 0.0)
  end
  begin
     id 28
     name rhand
     direction -1 -4.48825e-011 3.17344e-027   
     length 0.680541   
     axis -2.02492e-015 -90 -90   XYZ
    dof rx rz
    limits (-90.0 90.0)
           (-45.0 45.0)
  end
  begin
     id 29
     name rfingers
     direction -1 -4.49067e-011 6.34687e-027   
     length 0.54867   
     axis -4.04985e-015 -90 -90   XYZ
    dof rx
    limits (0.0 90.0)
  end
  begin
     id 30
     name rthumb
     direction -0.707107 -6.34833e-011 0.707107   
     length 0.787783   
     axis -90 -45 -2.85299e-015   XYZ
    dof rx rz
    limits (-45.0 45.0)
           (-45.0 45.0)
  end
:hierarchy
  begin
    root lhipjoint rhipjoint lowerback
    lhipjoint lfemur
    lfemur ltibia
    ltibia lfoot
    lfoot ltoes
    rhipjoint rfemur
    rfemur rtibia
    rtibia rfoot
    rfoot rtoes
    lowerback upperback
    upperback thorax
    thorax lowerneck lclavicle rclavicle
    lowerneck upperneck
    upperneck head
    lclavicle lhumerus
    lhumerus lradius
    lradius lwrist
    lwrist lhand lthumb
    lhand lfingers
    rclavicle rhumerus
    rhumerus rradius
    rradius rwrist
    rwrist rhand rthumb
    rhand rfingers
  end

#!OML:ASF E:\emotionWalksFemale\Project 1\Capture day 1\Session 1\Female1.ASF
:FULLY-SPECIFIED
:DEGREES
194
root 9.30665 20.7381 16.2234 184.976 -49.1878 -178.175
lowerback 11.7346 -0.540896 6.3103
upperback -4.52701 0.416891 1.70282
thorax -11.5462 -0.224167 -1.78216
lowerneck -10.2908 10.6632 8.94153
upperneck 9.39294 14.4627 -11.7445
head 6.0502 6.59915 -3.78512
rclavicle 2.65129e-014 -2.62396e-014
rhumerus -52.4321 14.3625 -54.2279
rradius 30.658
rwrist 40.1791
rhand 5.02487 -57.0864
rfingers 7.12502
rthumb 30.3937 -444.602
lclavicle 2.65129e-014 -2.62396e-014
lhumerus -39.6102 -12.7166 92.6577
lradius 26.8713
lwrist -41.9628
lhand 27.0268 -23.8368
lfingers 7.12502
lthumb 51.0151 -3.16381
rfemur -19.0177 30.7058 13.7916
rtibia 20.058
rfoot 8.5622 -36.3374
rtoes 24.6837
lfemur -14.7056 -19.7577 -23.722
ltibia 14.116
lfoot -32.942 25.3542
ltoes 67.9348
195
root 9.32423 20.7093 16.0936 184.894 -51.5466 -178.062
lowerback 11.3658 -0.82668 5.95589
upperback -4.54887 -0.0376731 1.90457
thorax -11.3807 -0.402719 -1.26796
lowerneck -10.3344 10.3813 8.49466
upperneck 9.30287 14.0715 -11.2813
head 5.9193 6.42935 -3.62173
rclavicle 1.06375e-013 -7.15625e-015
rhumerus -55.0065 13.8293 -55.7897
rradius 30.6967
rwrist 40.2491
rhand 3.35725 -56.436
rfingers 7.12502
rthumb 28.8019 -444.234
lclavicle 1.06375e-013 -7.15625e-015
lhumerus -39.9715 -13.513 93.4535
lradius 27.1233
lwrist -42.0266
lhand 27.7774 -23.9338
lfingers 7.12502
lthumb 51.6981 -3.65047
rfemur -19.4808 31.5314 13.1885
rtibia 20.4882
rfoot 7.11009 -37.0882
rtoes 27.3961
lfemur -14.6139 -19.3094 -24.0459
ltibia 13.6693
lfoot -32.1118 25.9831
ltoes 67.1294
196
root 9.33617 20.6647 15.9727 184.924 -53.6852 -177.919
lowerback 10.8716 -1.10657 5.7144
upperback -4.60993 -0.478791 2.05323
thorax -11.1772 -0.58738 -0.884033
lowerneck -10.5105 10.1317 7.99402
upperneck 9.35141 13.7254 -10.7088
head 5.8502 6.27811 -3.40187
rclavicle -3.45885e-014 -1.19271e-014
rhumerus -57.2838 13.4534 -57.4486
rradius 30.6594
rwrist 40.546
rhand 3.05526 -55.8729
rfingers 7.12502
rthumb 28.5134 -443.719
lclavicle -3.45885e-014 -1.19271e-014
lhumerus -40.4765 -14.2254 94.0799
lradius 27.5024
lwrist -41.7021
lhand 28.0314 -23.7498
lfingers 7.12502
lthumb 51.9287 -3.60184
rfemur -20.057 31.6617 12.6359
rtibia 20.8305
rfoot 7.80344 -36.9343
rtoes 26.5146
lfemur -14.7208 -19.1472 -24.2762
ltibia 13.3295
lfoot -31.9245 26.4205
ltoes 66.606
197
root 9.34819 20.6078 15.8535 184.827 -55.6014 -177.59
lowerback 10.3566 -1.35237 5.49834
upperback -4.73671 -0.871113 2.17508
thorax -11.0273 -0.755883 -0.558046
lowerneck -10.3937 9.849 7.71576
upperneck 9.34066 13.323 -10.2012
head 5.73216 6.11552 -3.25523
rclavicle -6.31141e-015 -1.43125e-014
rhumerus -59.4728 13.334 -59.4363
rradius 30.5661
rwrist 40.0852
rhand 3.51398 -55.5526
rfingers 7.12502
rthumb 28.9516 -443.325
lclavicle -6.31141e-015 -1.43125e-014
lhumerus -40.8493 -14.4771 94.2841
lradius 27.6608
lwrist -41.6706
lhand 28.5143 -23.6224
lfingers 7.12502
lthumb 52.3664 -3.73695
rfemur -20.6064 31.7234 12.2158
rtibia 21.0931
rfoot 7.59643 -36.8061
rtoes 25.9354
lfemur -14.8895 -18.8911 -24.4095
ltibia 13.1312
lfoot -31.2225 26.9158
ltoes 66.2934
198
root 9.36101 20.5385 15.7338 184.437 -57.4712 -177.081
lowerback 10.0386 -1.58449 5.33948
upperback -4.86201 -1.21922 2.3055
thorax -10.9886 -0.909167 -0.262823
lowerneck -10.4128 9.52234 7.31046
upperneck 9.52037 12.867 -9.53058
head 5.67545 5.92355 -3.03475
rclavicle 2.44257e-014 3.89618e-014
rhumerus -61.4553 12.5657 -60.9454
rradius 30.4416
rwrist 40.1955
rhand 4.50677 -55.3709
rfingers 7.12502
rthumb 29.8994 -442.976
lclavicle 2.44257e-014 3.89618e-014
lhumerus -40.9832 -14.1206 94.1559
lradius 27.5376
lwrist -42.1246
lhand 29.453 -23.3841
lfingers 7.12502
lthumb 53.2145 -4.02847
rfemur -20.9175 31.947 11.9767
rtibia 21.2923
rfoot 6.36699 -37.0338
rtoes 26.9429
lfemur -14.905 -18.5362 -24.4981
ltibia 12.9856
lfoot -30.0872 27.6363
ltoes 65.7755
199
root 9.37256 20.4578 15.6146 183.816 -59.2737 -176.551
lowerback 10.0194 -1.84031 5.1368
upperback -4.8759 -1.57986 2.47641
thorax -10.998 -1.06069 0.106818
lowerneck -10.965 9.21117 6.71864
upperneck 9.95606 12.4439 -8.79118
head 5.77999 5.72245 -2.73303
rclavicle 3.32467e-014 1.82882e-014
rhumerus -62.9824 11.642 -62.1148
rradius 30.1948
rwrist 40.5297
rhand 5.22742 -55.044
rfingers 7.12502
rthumb 30.5869 -442.523
lclavicle 3.32467e-014 1.82882e-014
lhumerus -40.9669 -13.3133 93.8595
lradius 27.42
lwrist -42.7999
lhand 29.7809 -22.8769
lfingers 7.12502
lthumb 53.5099 -3.71279
rfemur -20.8743 31.8256 12.0008
rtibia 21.4637
rfoot 6.84989 -36.6259
rtoes 25.6143
lfemur -14.6711 -18.2142 -24.6439
ltibia 12.8567
lfoot -28.396 28.7475
ltoes 64.9938
200
root 9.38427 20.3727 15.4941 183.266 -60.777 -176.008
lowerback 9.88635 -1.9716 4.7939
upperback -4.92589 -1.80514 2.58772
thorax -10.9655 -1.14007 0.459819
lowerneck -11.3398 8.88231 6.27695
upperneck 10.2661 11.9971 -8.22892
head 5.84087 5.51265 -2.52034
rclavicle -6.37726e-014 5.56597e-015
rhumerus -64.5112 10.8733 -63.5689
rradius 29.9019
rwrist 40.1102
rhand 5.57766 -54.7073
rfingers 7.12502
rthumb 30.9208 -442.124
lclavicle -6.37726e-014 5.56597e-015
lhumerus -40.7228 -12.7089 93.4595
lradius 27.0279
lwrist -43.3543
lhand 29.2354 -22.8952
lfingers 7.12502
lthumb 53.0183 -3.41443
rfemur -20.7471 30.936 12.2076
rtibia 21.4506
rfoot 8.94567 -35.0427
rtoes 21.9709
lfemur -14.6698 -18.0259 -24.7208
ltibia 13.0479
lfoot -27.5061 29.1111
ltoes 64.2171
201
root 9.39704 20.2679 15.3681 182.567 -62.196 -175.396
lowerback 9.80615 -2.02873 4.46616
upperback -5.0377 -1.93281 2.55366
thorax -11.034 -1.18036 0.632063
lowerneck -11.4602 8.43797 5.89262
upperneck 10.6354 11.3793 -7.51968
head 5.86487 5.24052 -2.29758
rclavicle 6.55989e-014 -7.15625e-015
rhumerus -66.2853 9.7801 -65.1078
rradius 29.6582
rwrist 39.6675
rhand 5.95017 -54.5375
rfingers 7.12502
rthumb 31.2758 -441.886
lclavicle 6.55989e-014 -7.15625e-015
lhumerus -40.8064 -12.9595 93.1292
lradius 26.833
lwrist -43.2933
lhand 28.9281 -23.1892
lfingers 7.12502
lthumb 52.7407 -3.53404
rfemur -20.6294 30.2834 12.4585
rtibia 21.5663
rfoot 9.04999 -34.113
rtoes 22.0468
lfemur -14.342 -18.1666 -24.7062
ltibia 12.7915
lfoot -27.8299 28.799
ltoes 65.1208
202
root 9.41071 20.1364 15.2398 181.63 -63.4976 -174.575
lowerback 9.81077 -2.08519 4.22539
upperback -5.14036 -2.04243 2.51475
thorax -11.1458 -1.21811 0.75043
lowerneck -11.5843 7.98063 5.29869
upperneck 10.9332 10.7499 -6.64789
head 5.85267 4.96815 -1.99261
rclavicle 1.95182e-014 -1.74931e-014
rhumerus -67.7923 8.51696 -66.4213
rradius 29.2758
rwrist 39.772
rhand 5.77476 -54.3852
rfingers 7.12502
rthumb 31.1087 -441.766
lclavicle 1.95182e-014 -1.74931e-014
lhumerus -40.9932 -13.147 92.7288
lradius 26.9046
lwrist -43.1156
lhand 29.1211 -23.2622
lfingers 7.12502
lthumb 52.9151 -3.71622
rfemur -20.741 30.8574 12.3897
rtibia 21.4502
rfoot 7.46819 -34.7054
rtoes 25.1773
lfemur -14.1741 -18.4135 -24.5632
ltibia 12.9741
lfoot -27.1254 29.2373
ltoes 64.6728
203
root 9.4232 20.0468 15.1214 180.58 -64.7143 -173.741
lowerback 9.88959 -2.13691 4.01163
upperback -5.1784 -2.13921 2.45838
thorax -11.2307 -1.25015 0.83274
lowerneck -11.662 7.47262 4.79813
upperneck 11.0527 10.0481 -5.92076
head 5.79531 4.65857 -1.75612
rclavicle 7.70261e-015 9.93923e-015
rhumerus -68.9578 6.97056 -67.2752
rradius 28.8188
rwrist 40.4209
rhand 5.42742 -54.3558
rfingers 7.12502
rthumb 30.7776 -441.799
lclavicle 7.70261e-015 9.93923e-015
lhumerus -41.1415 -13.0646 92.1758
lradius 27.0638
lwrist -43.0713
lhand 29.1916 -23.6644
lfingers 7.12502
lthumb 52.9787 -4.1586
rfemur -20.2244 30.0917 12.909
rtibia 21.2425
rfoot 11.3873 -32.7469
rtoes 13.7365
lfemur -14.0078 -18.4996 -24.4793
ltibia 13.4225
lfoot -24.961 30.6307
ltoes 62.9663
204
root 9.43597 19.8788 14.9901 179.466 -65.8981 -172.938
lowerback 9.9706 -2.1541 3.63369
upperback -5.154 -2.21201 2.42568
thorax -11.2366 -1.25573 1.0248
lowerneck -11.8447 7.04539 4.17523
upperneck 11.2775 9.47581 -5.17007
head 5.797 4.4037 -1.47332
rclavicle 3.22901e-014 5.96354e-015
rhumerus -70.0816 5.76324 -68.4623
rradius 28.5208
rwrist 40.6024
rhand 6.05812 -54.4662
rfingers 7.12502
rthumb 31.3787 -441.795
lclavicle 3.22901e-014 5.96354e-015
lhumerus -41.1171 -12.7628 91.5739
lradius 27.0919
lwrist -43.1634
lhand 29.1896 -24.0546
lfingers 7.12502
lthumb 52.9769 -4.54764
rfemur -19.867 29.6272 13.3743
rtibia 21.5588
rfoot 8.33623 -33.0434
rtoes 20.7807
lfemur -13.1098 -18.5098 -24.4827
ltibia 12.5881
lfoot -23.085 32.0558
ltoes 61.6161
